# xmcd
#
# Track frame offsets: 
#        150
#        12268
#        23717
#        36369
#        48633
#        59560
#        71368
#        84274
#        97526
#        108243
#        117952
#        129190
#        139318
#        150672
#        162974
#        172503
#        183595
#        194801
#        207262
#        218089
#        230107
#        242443
#        254564
#        266768
#        277320
#
# Disc length: 3859 seconds
#
# Revision: 3
# Processed by: cddbd v1.5.2PL0 Copyright (c) Steve Scherf et al.
# Submitted via: ExactAudioCopy v0.95b4
#
DISCID=640f1119
DTITLE=Various Artist - Hillbilly Boogie [disc 1: Travelling Boogie]
DYEAR=2002
DGENRE=Country Boogie
TTITLE0=Zeb Turner - Travelling Boogie [1951]
TTITLE1=Johnny Tyler and the Riders of the Rio Grande - Freight Train Bo
TTITLE1=ogie [1947]
TTITLE2=Jimmie O'Neal and the Colorado Hillbillies - Streamliner Boogie 
TTITLE2=[c1945]
TTITLE3=Lonnie Glosson - Pan American Boogie [1950]
TTITLE4=Harry Choates - Louisiana Boogie [1950]
TTITLE5=Jeff Durham and His Rhythm Playboys - Tennessee Boogie [1949]
TTITLE6=Zeb Turner - Tennessee Boogie [1949]
TTITLE7=Curley Williams and His Georgia Peach Pickers - Georgia Boogie [
TTITLE7=1947]
TTITLE8=Gene O'Quinn - Texas Boogie [1951]
TTITLE9=Red Pleasant and the Southern Serenaders - Mississippi Boogie [1
TTITLE9=950]
TTITLE10=Jack Guthrie and His Oklahomans - Oakie Boogie [1946]
TTITLE11=Hardrock Gunter - Dixieland Boogie [1951]
TTITLE12=Pete Burke Trio - Kentucky Waltz Boogie [1951]
TTITLE13=Delmore Brothers - Mobile Boogie [1947]
TTITLE14=Rocky Rauch and His Western Serenaders - Colorado Boogie [1951]
TTITLE15=Jean Davidson - Fort Worth Boogie [1949]
TTITLE16=Jim Boyd - Waxahachie Boogie Woogie Dishwasher Boy [1950]
TTITLE17=Wayne Raney and Delmore Brothers - Del Rio Boogie [1949]
TTITLE18=Milo Twins - Downtown Boogie [1947]
TTITLE19=Billy Hughes' Buccaroos - Out of Town Boogie [1947]
TTITLE20=Billy Briggs - North Pole Boogie [1951]
TTITLE21=Spade Cooley - Three Way Boogie [1946]
TTITLE22=Tennessee Ernie Ford - Smokey Mountain Boogie [1949]
TTITLE23=Curley Rash and His South Texas Playboys - Humble Road Boogie [
TTITLE23=1950]
TTITLE24=Delmore Brothers - Peach Tree Street Boogie [1947]
EXTD=See <http://www.propermusic.com/products.asp?recnumber=71> for de
EXTD=tailed track-list and discography.\nCompiled and annotated by Ada
EXTD=m Komorowski - produced by Joop Visser Productions.\nDigital remas
EXTD=tering by Peter Rynston at Tall Order Mastering.\n4CD: Proper Rec
EXTD=ords PROPERBOX 50 (2002-10/11 - 2005), UPC 805520020503.
EXTT0=
EXTT1=
EXTT2=
EXTT3=
EXTT4=
EXTT5=
EXTT6=
EXTT7=
EXTT8=
EXTT9=
EXTT10=
EXTT11=
EXTT12=
EXTT13=
EXTT14=
EXTT15=
EXTT16=
EXTT17=
EXTT18=
EXTT19=
EXTT20=
EXTT21=
EXTT22=
EXTT23=
EXTT24=
PLAYORDER=
